<?xml version="1.0" encoding="UTF-8"?>
<svg width="73px" height="27px" viewBox="0 0 73 27" version="1.1" xmlns="http://www.w3.org/2000/svg" xmlns:xlink="http://www.w3.org/1999/xlink">
    <!-- Generator: Sketch 42 (36781) - http://www.bohemiancoding.com/sketch -->
    <title>Jobly</title>
    <desc>Created with Sketch.</desc>
    <defs></defs>
    <g id="Assets" stroke="none" stroke-width="1" fill="none" fill-rule="evenodd">
        <path d="M13.152,14.504 L13.152,1.176 L1.952,1.176 L1.952,4.928 L8.7,4.928 L8.7,14.392 C8.7,16.072 7.804,16.968 6.348,16.968 C5.144,16.968 3.576,16.24 2.204,14.784 L0.16,17.92 C1.812,19.852 3.94,20.972 6.572,20.972 C10.632,20.972 13.152,18.62 13.152,14.504 Z M22.82,5.572 C27.636,5.572 30.884,8.624 30.884,13.244 C30.884,17.836 27.636,20.944 22.82,20.944 C17.976,20.944 14.728,17.836 14.728,13.244 C14.728,8.624 17.976,5.572 22.82,5.572 Z M22.82,9.156 C20.58,9.156 19.068,10.836 19.068,13.3 C19.068,15.764 20.58,17.444 22.82,17.444 C25.032,17.444 26.572,15.764 26.572,13.3 C26.572,10.836 25.032,9.156 22.82,9.156 Z M41.952,5.572 C46.18,5.572 49.036,8.68 49.036,13.328 C49.036,17.892 46.264,20.944 42.036,20.944 C39.936,20.944 38.284,20.104 37.192,18.592 L37.192,20.776 L32.88,20.776 L32.88,0 L37.192,0 L37.192,7.924 C38.256,6.412 39.908,5.572 41.952,5.572 Z M40.944,17.36 C43.156,17.36 44.668,15.652 44.668,13.188 C44.668,10.78 43.156,9.044 40.944,9.044 C38.732,9.044 37.192,10.752 37.192,13.188 C37.192,15.68 38.732,17.36 40.944,17.36 Z M51.004,0 L51.004,20.776 L55.316,20.776 L55.316,0 L51.004,0 Z M65.936,22.456 L72.544,5.712 L68.232,5.712 L64.676,16.072 L60.728,5.712 L56.276,5.712 L62.52,20.468 L62.1,21.308 C61.68,22.204 61.008,22.652 60.112,22.652 C59.412,22.652 58.824,22.4 58.152,21.84 L56.332,24.948 C57.564,25.956 58.824,26.404 60.42,26.404 C63.024,26.404 64.872,25.116 65.936,22.456 Z" id="Jobly" fill="#FFFFFF"></path>
    </g>
</svg>